<svg width="400" height="400" viewBox="0 0 400 400" fill="none" xmlns="http://www.w3.org/2000/svg">
<path d="M250 150H150V250H250V150ZM216.667 216.667H183.333V183.333H216.667V216.667ZM350 183.333V150H316.667V116.667C316.667 98.3333 301.667 83.3333 283.333 83.3333H250V50H216.667V83.3333H183.333V50H150V83.3333H116.667C98.3333 83.3333 83.3333 98.3333 83.3333 116.667V150H50V183.333H83.3333V216.667H50V250H83.3333V283.333C83.3333 301.667 98.3333 316.667 116.667 316.667H150V350H183.333V316.667H216.667V350H250V316.667H283.333C301.667 316.667 316.667 301.667 316.667 283.333V250H350V216.667H316.667V183.333H350ZM283.333 283.333H116.667V116.667H283.333V283.333Z" fill="white"/>
</svg>
